<svg id="SvgjsSvg1064" width="288" height="288" xmlns="http://www.w3.org/2000/svg" version="1.1" xmlns:xlink="http://www.w3.org/1999/xlink" xmlns:svgjs="http://svgjs.com/svgjs"><g id="SvgjsG1077" transform="matrix(1,0,0,1,0,0)" fill="#00483f"><circle id="SvgjsCircle1078" r="144" cx="144" cy="144"></circle><rect id="SvgjsRect1079" width="144" height="144" x="144" y="144" rx="0" ry="0"></rect></g><defs id="SvgjsDefs1065"></defs><g id="SvgjsG1066" transform="matrix(0.72,0,0,0.72,42.99120239257813,40.31999893188477)"><svg xmlns="http://www.w3.org/2000/svg" viewBox="0 0 64 64" width="288" height="288"><g data-name="automation, task, business, automate" fill="#ffffff" class="color000 svgShape"><path d="M17,31A10,10,0,1,1,27,21,10,10,0,0,1,17,31Zm0-18a8,8,0,1,0,8,8A8,8,0,0,0,17,13Z" fill="#ffffff" class="color000 svgShape"></path><path d="M15.26 24.55h0a2.61 2.61 0 01-1.86-.77l-1.16-1.16a1 1 0 010-1.41 1 1 0 011.42 0l1.15 1.16a.64.64 0 00.45.18h0a.63.63 0 00.45-.18l4.63-4.63a1 1 0 011.42 0 1 1 0 010 1.41l-4.63 4.63A2.62 2.62 0 0115.26 24.55zM22 53A10 10 0 1132 43 10 10 0 0122 53zm0-18a8 8 0 108 8A8 8 0 0022 35z" fill="#ffffff" class="color000 svgShape"></path><path d="M20.26,46.55h0a2.61,2.61,0,0,1-1.86-.77l-1.16-1.16a1,1,0,0,1,0-1.41,1,1,0,0,1,1.42,0l1.15,1.16a.64.64,0,0,0,.45.18h0a.63.63,0,0,0,.45-.18l4.63-4.63a1,1,0,0,1,1.42,0,1,1,0,0,1,0,1.41l-4.63,4.63A2.62,2.62,0,0,1,20.26,46.55Z" fill="#ffffff" class="color000 svgShape"></path><path d="M13,43a8.22,8.22,0,0,0,.06,1H11a4,4,0,0,1-4-4V22a1,1,0,0,1,1-1,8.88,8.88,0,0,0,1,4.11V40a2,2,0,0,0,2,2h2.06A8.22,8.22,0,0,0,13,43Z" opacity=".5" fill="#ffffff" class="color000 svgShape"></path><rect width="18" height="18" x="8" y="12" opacity=".5" rx="9" fill="#ffffff" class="color000 svgShape"></rect><rect width="18" height="18" x="13" y="34" opacity=".5" rx="9" fill="#ffffff" class="color000 svgShape"></rect><path d="M57.76 11H32.24A3.24 3.24 0 0029 14.24V25.76A3.24 3.24 0 0032.24 29H57.76A3.24 3.24 0 0061 25.76V14.24A3.24 3.24 0 0057.76 11zM44 24H34a1 1 0 010-2H44a1 1 0 010 2zm5-6H34a1 1 0 010-2H49a1 1 0 010 2zM58 34H37.24A3.24 3.24 0 0034 37.24V48.76A3.24 3.24 0 0037.24 52H58a3.25 3.25 0 003.24-3.24V37.24A3.25 3.25 0 0058 34zM39 38H49a1 1 0 010 2H39a1 1 0 010-2zm15 8H39a1 1 0 010-2H54a1 1 0 010 2z" opacity=".51" fill="#ffffff" class="color000 svgShape"></path></g></svg></g></svg>