<svg id="SvgjsSvg1013" width="288" height="288" xmlns="http://www.w3.org/2000/svg" version="1.1" xmlns:xlink="http://www.w3.org/1999/xlink" xmlns:svgjs="http://svgjs.com/svgjs"><g id="SvgjsG1021" transform="matrix(1,0,0,1,0,0)" fill="#00e2c9"><circle id="SvgjsCircle1022" r="144" cx="144" cy="144"></circle><rect id="SvgjsRect1023" width="144" height="144" x="144" y="144" rx="0" ry="0"></rect></g><defs id="SvgjsDefs1014"></defs><g id="SvgjsG1015" transform="matrix(0.71,0,0,0.71,41.760000000000005,40.02000000000001)"><svg xmlns="http://www.w3.org/2000/svg" fill="none" viewBox="0 0 24 24" width="288" height="288"><path stroke="#ffffff" stroke-linecap="round" stroke-linejoin="round" stroke-width="2" d="M4 4a1 1 0 0 1 1-1h14a1 1 0 0 1 1 1v14a1 1 0 0 1-1 1H5a1 1 0 0 1-1-1V4zm4 15v1H6v-1m12 0v1h-2v-1" class="colorStroke000 svgStroke"></path><circle cx="12" cy="11" r="4" stroke="#ffffff" stroke-width="2" class="colorStroke000 svgStroke"></circle><path stroke="#ffffff" stroke-linecap="round" stroke-linejoin="round" stroke-width="2" d="M13 11h3" class="colorStroke000 svgStroke"></path></svg></g></svg>