<svg id="SvgjsSvg1026" width="288" height="288" xmlns="http://www.w3.org/2000/svg" version="1.1" xmlns:xlink="http://www.w3.org/1999/xlink" xmlns:svgjs="http://svgjs.com/svgjs"><g id="SvgjsG1032" transform="matrix(0.9999999999999999,0,0,0.9999999999999999,2.842170943040401e-14,2.842170943040401e-14)" fill="#00ffe0"><circle id="SvgjsCircle1033" r="144" cx="144" cy="144"></circle><rect id="SvgjsRect1034" width="144" height="144" x="144" y="144" rx="0" ry="0"></rect></g><defs id="SvgjsDefs1027"></defs><g id="SvgjsG1028" transform="matrix(0.7,0,0,0.7,43.19999313354492,43.189203643798834)"><svg xmlns="http://www.w3.org/2000/svg" viewBox="0 0 40 40" width="288" height="288"><path d="M19.09 20.54 11.14 31.2a2.85 2.85 0 0 1-4 .59 2.86 2.86 0 0 1-.59-4L12.31 20a.14.14 0 0 0 0-.18L6.62 12.2a2.85 2.85 0 0 1 .58-4 2.86 2.86 0 0 1 4 .59l4.72 6.37 3.17 4.19a1 1 0 0 1 0 1.19Zm1.83.1 3.17 4.19 4.72 6.37a2.86 2.86 0 0 0 4 .59 2.85 2.85 0 0 0 .58-4l-5.69-7.64a.14.14 0 0 1 0-.18l5.75-7.77a2.86 2.86 0 0 0-.59-4 2.85 2.85 0 0 0-4 .59l-7.95 10.67a1 1 0 0 0 .01 1.18Z" fill="#ffffff" class="color000 svgShape"></path></svg></g></svg>