<svg id="SvgjsSvg1047" width="288" height="288" xmlns="http://www.w3.org/2000/svg" version="1.1" xmlns:xlink="http://www.w3.org/1999/xlink" xmlns:svgjs="http://svgjs.com/svgjs"><g id="SvgjsG1064" transform="matrix(1,0,0,1,0,0)" fill="#00c5ae"><circle id="SvgjsCircle1065" r="144" cx="144" cy="144"></circle><rect id="SvgjsRect1066" width="144" height="144" x="144" y="144" rx="0" ry="0"></rect></g><defs id="SvgjsDefs1048"></defs><g id="SvgjsG1049" transform="matrix(0.68,0,0,0.68,46.08,46.08008300781249)"><svg xmlns="http://www.w3.org/2000/svg" viewBox="0 0 64 64" width="288" height="288"><polygon fill="#00c5ae" points="32 34 32 34.33 27 41 3 36 8 30 32 34" class="colora4e276 svgShape"></polygon><polygon fill="#00c5ae" points="61 36 55.97 37.05 37 41 32 34.33 32 34 56 30 61 36" class="colora4e276 svgShape"></polygon><polygon fill="#ffffff" points="56 30 32 34 8 30 32 27 56 30" class="color00665a svgShape"></polygon><polygon fill="#00c5ae" points="32 34.33 32 61 8 54 8 37.2 8.03 37.05 27 41 32 34.33" class="color64c37d svgShape"></polygon><polygon fill="#00c5ae" points="32 34.33 37 41 55.97 37.05 56 37.2 56 54 32 61 32 40 32 38 32 34.33" class="color4b925e svgShape"></polygon><circle cx="11" cy="11" r="8" fill="#00c5ae" class="colorffda44 svgShape"></circle><circle cx="32" cy="11" r="8" fill="#00c5ae" class="colorffda44 svgShape"></circle><circle cx="53" cy="11" r="8" fill="#00c5ae" class="colorffda44 svgShape"></circle><path d="M61.77 35.36l-5-6a1 1 0 0 0-.65-.35L43 27.37V26H53a1 1 0 0 0 1-1V22H52v2H42a1 1 0 0 0-1 1v2.12l-8-1V22H31v4.12l-8 1V25a1 1 0 0 0-1-1H12V22H10v3a1 1 0 0 0 1 1H21v1.37L7.88 29.01a1 1 0 0 0-.65.35l-5 6a1 1 0 0 0-.17.97.98.98 0 0 0 .74.65l4.2.87V54a1 1 0 0 0 .72.96l24 7v-.01A.918.918 0 0 0 32 62a.9.9 0 0 0 .28-.04l24-7A1 1 0 0 0 57 54V37.85l4.2-.87a.98.98 0 0 0 .74-.65A1 1 0 0 0 61.77 35.36zm-56.94 0L8.4 31.08l22.03 3.67-3.85 5.14zM31 59.67L9 53.25V38.27l17.8 3.71A1.231 1.231 0 0 0 27 42a1.014 1.014 0 0 0 .8-.4L31 37.33zm1-26.68L14.93 30.14 21 29.38V30h2v-.87l8-1V30h2V28.13l8 1V30h2v-.62l6.07.76zM55 53.25L33 59.67V37.33l3.2 4.27a1.014 1.014 0 0 0 .8.4 1.231 1.231 0 0 0 .2-.02L55 38.27zM37.42 39.89l-3.85-5.14L55.6 31.08l3.57 4.28zM33 10V8a1 1 0 0 1 1 1h2a3.009 3.009 0 0 0-3-3V5H31V6a3 3 0 0 0 0 6v2a1 1 0 0 1-1-1H28a3.009 3.009 0 0 0 3 3v1h2V16a3 3 0 0 0 0-6zm-2 0a1 1 0 0 1 0-2zm2 4V12a1 1 0 0 1 0 2z" fill="#ffffff" class="color000 svgShape"></path><path d="M32 2a9 9 0 1 0 9 9A9.014 9.014 0 0 0 32 2zm0 16a7 7 0 1 1 7-7A7.008 7.008 0 0 1 32 18zM11 20a9 9 0 1 0-9-9A9.01 9.01 0 0 0 11 20zM11 4a7 7 0 1 1-7 7A7.008 7.008 0 0 1 11 4z" fill="#ffffff" class="color000 svgShape"></path><path d="M9 13H7a3 3 0 0 0 3 3v1h2V16a3 3 0 0 0 0-6V8a1 1 0 0 1 1 1h2a3 3 0 0 0-3-3V5H10V6a3 3 0 0 0 0 6v2A1 1 0 0 1 9 13zM9 9a1 1 0 0 1 1-1v2A1 1 0 0 1 9 9zm3 3a1 1 0 0 1 0 2zM53 2a9 9 0 1 0 9 9A9.014 9.014 0 0 0 53 2zm0 16a7 7 0 1 1 7-7A7.008 7.008 0 0 1 53 18z" fill="#ffffff" class="color000 svgShape"></path><path d="M54,10V8a1,1,0,0,1,1,1h2a3.009,3.009,0,0,0-3-3V5H52V6a3,3,0,0,0,0,6v2a1,1,0,0,1-1-1H49a3.009,3.009,0,0,0,3,3v1h2V16a3,3,0,0,0,0-6Zm-2,0a1,1,0,0,1,0-2Zm2,4V12a1,1,0,0,1,0,2Z" fill="#ffffff" class="color000 svgShape"></path></svg></g></svg>