<svg id="SvgjsSvg1017" width="288" height="288" xmlns="http://www.w3.org/2000/svg" version="1.1" xmlns:xlink="http://www.w3.org/1999/xlink" xmlns:svgjs="http://svgjs.com/svgjs"><g id="SvgjsG1024" transform="matrix(1,0,0,1,0,0)" fill="#007d6a"><circle id="SvgjsCircle1025" r="144" cx="144" cy="144"></circle><rect id="SvgjsRect1026" width="144" height="144" x="144" y="144" rx="0" ry="0"></rect></g><defs id="SvgjsDefs1018"></defs><g id="SvgjsG1019" transform="matrix(0.78,0,0,0.78,31.679999999999993,31.679999999999993)"><svg xmlns="http://www.w3.org/2000/svg" fill="none" viewBox="0 0 24 24" width="288" height="288"><path fill="#ffffff" d="M6 14.25a.75.75 0 0 0 0 1.5h6a.75.75 0 0 0 0-1.5H6Z" class="color000 svgShape"></path><path fill="#ffffff" fill-rule="evenodd" d="M5 4a3 3 0 0 0-3 3v10a3 3 0 0 0 3 3h14a3 3 0 0 0 3-3V7a3 3 0 0 0-3-3H5Zm14 1.5H5A1.5 1.5 0 0 0 3.5 7v1.25h17V7A1.5 1.5 0 0 0 19 5.5ZM3.5 17V9.75h17V17a1.5 1.5 0 0 1-1.5 1.5H5A1.5 1.5 0 0 1 3.5 17Z" clip-rule="evenodd" class="color000 svgShape"></path></svg></g></svg>